<svg width="923" height="923" viewBox="0 0 923 923" fill="none" xmlns="http://www.w3.org/2000/svg">
<rect width="923" height="923" rx="100" fill="#9F51FF"/>
<path d="M322.129 457.517L284.28 728.656H190V586.205L322.129 457.517Z" fill="white"/>
<path d="M322.129 457.517L359.979 728.656H461.828V596.527L322.129 457.517Z" fill="white"/>
<path d="M462.517 596.871L733.656 634.72L733.656 729L591.205 729L462.517 596.871Z" fill="white"/>
<path d="M462.517 596.871L733.656 559.021L733.656 457.172L601.527 457.172L462.517 596.871Z" fill="white"/>
<path d="M601.871 456.14L639.72 185L734 185L734 327.451L601.871 456.14Z" fill="white"/>
<path d="M601.871 456.14L564.021 185L462.172 185L462.172 317.129L601.871 456.14Z" fill="white"/>
<path d="M461.14 318.161L190 280.312L190 186.032L332.451 186.032L461.14 318.161Z" fill="white"/>
<path d="M461.14 318.161L190 356.011L190 457.86L322.129 457.86L461.14 318.161Z" fill="white"/>
</svg>
